<?xml version="1.0" encoding="UTF-8"?>
<svg id="Capa_1" xmlns="http://www.w3.org/2000/svg" version="1.1" viewBox="0 0 841.89 595.28">
  <!-- Generator: Adobe Illustrator 30.3.0, SVG Export Plug-In . SVG Version: 2.1.3 Build 182)  -->
  <defs>
    <style>
      .st0 {
        fill: #fff;
      }
    </style>
  </defs>
  <g>
    <path class="st0" d="M376.08,318.65l-20.53-24.25c-.33-.38-.31-.95.04-1.32,2.79-2.92,5.55-5.82,8.28-8.69,2.93-3.08,5.84-6.2,8.73-9.37v.06c.23-.23.34-.43.34-.62,0-.23-.25-.34-.74-.34h-6.1c-.47,0-.95.32-1.42.96l-19.59,20.58c-.61.64-1.7.21-1.7-.68v-19.5c0-.41-.14-.74-.43-.99-.29-.25-.62-.37-.99-.37h-3.17c-.45,0-.79.13-1.02.4-.23.27-.34.59-.34.96v43.04c0,.75.61,1.36,1.36,1.36h3.17c.94,0,1.42-.45,1.42-1.36v-12.15c0-.25.1-.49.27-.67l6.49-6.91c.4-.43,1.09-.41,1.47.04l16.79,20.1c.41.64.86.96,1.36.96h6.1c.45,0,.68-.11.68-.34,0-.04-.04-.14-.11-.29-.07-.15-.19-.35-.35-.6h-.01Z"/>
    <path class="st0" d="M409.64,301.03c.69-.43,1.33-.91,1.93-1.45,1.01-.89,1.87-1.9,2.59-3.03s1.28-2.36,1.68-3.68.6-2.71.6-4.14c0-2.01-.38-3.91-1.12-5.68-.75-1.78-1.78-3.33-3.1-4.65s-2.85-2.37-4.62-3.14c-1.77-.77-3.68-1.16-5.73-1.16h-17.78c-.9,0-1.36.49-1.36,1.48v41.05c0,1.78,1.44,3.22,3.22,3.22h1.34c.94,0,1.42-.45,1.42-1.36v-14.24c0-.56.45-1.01,1.01-1.01,0,0,11.16,0,11.52-.02.2,0,.55,0,.85.01.32,0,.61.2.75.49l7.16,14.98c.35.76.84,1.14,1.48,1.14h3.73c.76,0,1.14-.32,1.14-.96v-.4l-7.35-15.07c-.41-.84-.15-1.88.65-2.38h-.01ZM408.09,294.73c-.76.8-1.66,1.44-2.71,1.91s-2.18.71-3.39.71h-10.45c-1.56,0-2.83-1.27-2.83-2.83v-11.72c0-1.56,1.27-2.83,2.83-2.83h10.33c1.23,0,2.38.24,3.43.72,1.06.48,1.97,1.12,2.74,1.93s1.38,1.73,1.82,2.77c.44,1.05.66,2.14.66,3.27s-.22,2.25-.65,3.3-1.03,1.97-1.79,2.77h.01Z"/>
    <path class="st0" d="M456.84,313.87h-24.06c-.49,0-.89-.4-.89-.89v-13.37c0-.49.4-.89.89-.89h18.64c.45,0,.79-.14,1.02-.43.23-.29.34-.62.34-.99v-3.14c0-.51-.13-.88-.4-1.09-.27-.22-.59-.32-.95-.32h-18.64c-.49,0-.89-.4-.89-.89v-10.88c0-.49.4-.89.89-.89h23.94c.51,0,.89-.14,1.12-.43.24-.29.35-.63.35-1.02v-3.05c0-.99-.47-1.48-1.42-1.48h-29.51c-.9,0-1.36.47-1.36,1.42v43.04c0,.86.45,1.29,1.36,1.29h29.64c.75,0,1.36-.61,1.36-1.36v-3.17c0-.97-.47-1.45-1.42-1.45h0Z"/>
    <path class="st0" d="M470.83,274.09h-3.2c-.43,0-.77.13-1,.4-.24.27-.35.59-.35.96v43.04c0,.9.45,1.36,1.36,1.36h3.2c.94,0,1.42-.45,1.42-1.36v-43.04c0-.41-.14-.74-.43-.99-.29-.25-.62-.37-.99-.37h-.01Z"/>
    <path class="st0" d="M511.38,298.28c-1.25-.94-2.68-1.74-4.27-2.37-1.59-.64-3.21-1.21-4.87-1.73-1.65-.51-3.28-1-4.87-1.46s-3.01-.98-4.27-1.56c-1.25-.57-2.26-1.25-3.02-2.03-.76-.78-1.14-1.75-1.14-2.9,0-.82.18-1.64.54-2.45.36-.81.92-1.54,1.68-2.19.76-.65,1.73-1.17,2.9-1.56,1.17-.39,2.57-.59,4.19-.59,1.38,0,2.66.22,3.85.66s2.26.94,3.22,1.49c.95.55,1.76,1.1,2.42,1.63s1.13.89,1.42,1.08c.29.29.6.44.94.46s.67-.12,1-.43l2.19-2.1c.33-.31.49-.63.48-.97s-.16-.66-.45-.97c-.84-.99-1.84-1.88-3-2.7-1.16-.81-2.4-1.51-3.73-2.09-1.32-.59-2.69-1.04-4.08-1.37-1.4-.33-2.74-.49-4.04-.49-2.4,0-4.57.31-6.52.94-1.94.63-3.6,1.5-4.98,2.63s-2.44,2.47-3.19,4.02-1.12,3.26-1.12,5.13c0,1.48.27,2.81.8,3.99s1.37,2.25,2.51,3.2c1.14.96,2.59,1.83,4.36,2.62s3.88,1.55,6.35,2.26c1.79.53,3.47,1.04,5.04,1.52,1.57.48,2.94,1.03,4.11,1.63,1.17.61,2.1,1.31,2.79,2.13.69.81,1.03,1.8,1.03,2.97,0,1.4-.35,2.61-1.05,3.65-.7,1.04-1.59,1.89-2.68,2.57s-2.29,1.18-3.6,1.51c-1.32.33-2.6.49-3.85.49-.7,0-1.55-.11-2.56-.34s-2.06-.57-3.16-1.03-2.2-1.05-3.3-1.76c-1.1-.71-2.08-1.55-2.94-2.51l-.4-.4c-.27-.33-.57-.51-.89-.54-.33-.03-.67.1-1.02.39l-2.43,2.03c-.35.29-.53.6-.54.92-.01.33.12.66.39.99.99,1.27,2.1,2.4,3.36,3.39,1.25.99,2.6,1.82,4.05,2.51,1.45.69,2.96,1.21,4.53,1.57,1.57.36,3.16.54,4.76.54,2.4,0,4.65-.34,6.75-1.02s3.92-1.64,5.47-2.88c1.55-1.24,2.77-2.74,3.67-4.5.89-1.76,1.34-3.71,1.34-5.87,0-1.87-.38-3.46-1.14-4.78-.76-1.31-1.77-2.44-3.02-3.39v.06h-.01Z"/>
    <path class="st0" d="M602.09,274.46c-.32-.25-.66-.37-1.03-.37h-3.11c-.78,0-1.23.38-1.36,1.14v31.57c0,.9-1.15,1.29-1.69.56l-24.53-32.6c-.33-.45-.76-.68-1.29-.68h-4.13c-.41,0-.74.13-.99.4s-.37.61-.37,1.02v42.04c0,1.27,1.03,2.3,2.3,2.3h2.17c.94,0,1.42-.45,1.42-1.36v-32.54c0-.9,1.15-1.29,1.69-.56l25.2,33.78c.33.45.72.68,1.17.68h3.51c1.01,0,1.51-.45,1.51-1.36v-43.04c0-.41-.16-.74-.48-.99h.01Z"/>
    <path class="st0" d="M554.97,313.87h-24.06c-.49,0-.89-.4-.89-.89v-13.37c0-.49.4-.89.89-.89h18.64c.45,0,.79-.14,1.02-.43.23-.29.34-.62.34-.99v-3.14c0-.51-.13-.88-.4-1.09-.27-.22-.59-.32-.95-.32h-18.64c-.49,0-.89-.4-.89-.89v-10.88c0-.49.4-.89.89-.89h23.94c.51,0,.89-.14,1.12-.43.24-.29.35-.63.35-1.02v-3.05c0-.99-.47-1.48-1.42-1.48h-29.51c-.9,0-1.36.47-1.36,1.42v43.04c0,.86.45,1.29,1.36,1.29h29.64c.75,0,1.36-.61,1.36-1.36v-3.17c0-.97-.47-1.45-1.42-1.45h-.01Z"/>
  </g>
  <g>
    <path class="st0" d="M292.19,302.57l-5.41-6.38c-.59-.69-.55-1.72.07-2.37,1.05-1.11,2.1-2.2,3.14-3.3.73-.77,1.46-1.54,2.19-2.3.55-.58,1.11-1.17,1.66-1.75,1.29-1.36,2.58-2.73,3.86-4.1.16-.17.32-.35.49-.53.15-.18.31-.35.48-.51.24-.25.49-.49.76-.72,1.28-1.11,2.72-1.91,4.32-2.4.2-.06.39-.12.59-.17.51-.13.66-.8.26-1.15-1.23-1.08-2.55-2.05-3.95-2.9-.13-.06-.22-.13-.33-.14-.1,0-.18.01-.31.09-4.21,2.68-7.83,6.58-7.83,6.58l-15.11,15.87c-.68.71-1.88.23-1.88-.75v-14.54s0-4.04-1.05-6.56c-.08-.19-.16-.38-.24-.56-.25-.58-.95-.83-1.51-.52-1.14.64-2.24,1.36-3.27,2.14-.25.19-.34.53-.21.81.07.16.14.33.21.5.4,1.02.62,2.11.66,3.27v33.44c.02.37.19,3.66-.77,5.54-.23.45-.09,1.01.32,1.32.97.72,1.99,1.39,3.06,1.98.52.29,1.2.09,1.45-.45,1.36-2.85,1.36-7.52,1.36-7.52v-7.18c0-.75.29-1.48.8-2.03l.53-.56,4.14-4.41c.73-.78,1.97-.74,2.66.08l8.86,10.6s4.01,5.22,8.83,9.05c.7.55,1.69.55,2.39,0,.6-.48,1.19-.97,1.75-1.5.69-.64.63-1.76-.12-2.32-4.86-3.62-12.85-13.64-12.85-13.64h0Z"/>
    <path class="st0" d="M287,259.59c-20.77,0-37.6,16.84-37.6,37.6s16.84,37.6,37.6,37.6,37.6-16.84,37.6-37.6-16.84-37.6-37.6-37.6ZM286.73,329.47c-17.68,0-32.01-14.33-32.01-32.01s14.33-32.01,32.01-32.01,32.01,14.33,32.01,32.01-14.33,32.01-32.01,32.01Z"/>
  </g>
</svg>