<svg width="641" height="134" viewBox="0 0 641 134" fill="none" xmlns="http://www.w3.org/2000/svg">
<path d="M229.874 104.884L192.62 61.819C192.022 61.1442 192.058 60.1319 192.693 59.4748C197.756 54.2892 202.764 49.1391 207.718 44.0423C213.035 38.5726 218.315 33.0317 223.56 27.4021V27.5087C223.977 27.1002 224.176 26.7451 224.176 26.4076C224.176 25.9992 223.723 25.8038 222.834 25.8038H211.765C210.912 25.8038 210.041 26.3721 209.188 27.5087L173.64 64.0566C172.533 65.1932 170.555 64.4296 170.555 62.849V28.2191C170.555 27.491 170.301 26.9049 169.775 26.4609C169.248 26.0169 168.65 25.8038 167.978 25.8038H162.226C161.409 25.8038 160.792 26.0347 160.375 26.5142C159.958 26.9937 159.758 27.562 159.758 28.2191V104.654C159.758 105.986 160.865 107.069 162.226 107.069H167.978C169.684 107.069 170.555 106.27 170.555 104.654V83.0765C170.555 82.6325 170.736 82.2063 171.045 81.8866L182.822 69.6152C183.547 68.8516 184.8 68.887 185.489 69.6862L215.956 105.382C216.7 106.518 217.517 107.087 218.424 107.087H229.493C230.31 107.087 230.727 106.891 230.727 106.483C230.727 106.412 230.655 106.234 230.528 105.968C230.401 105.701 230.183 105.346 229.892 104.902H229.874V104.884Z" fill="white"/>
<path d="M290.773 73.5932C292.025 72.8295 293.186 71.9771 294.275 71.0181C296.108 69.4375 297.668 67.6439 298.975 65.6371C300.281 63.6304 301.297 61.446 302.023 59.1018C302.749 56.7577 303.112 54.2892 303.112 51.7497C303.112 48.1801 302.422 44.8059 301.08 41.6625C299.719 38.5014 297.85 35.7488 295.454 33.4046C293.059 31.0605 290.283 29.1958 287.071 27.8284C283.859 26.4609 280.393 25.7683 276.673 25.7683H244.409C242.776 25.7683 241.942 26.6385 241.942 28.3966V101.297C241.942 104.458 244.555 107.016 247.785 107.016H250.216C251.922 107.016 252.793 106.216 252.793 104.6V79.3115C252.793 78.317 253.609 77.5179 254.626 77.5179C254.626 77.5179 274.877 77.5179 275.53 77.4824C275.893 77.4824 276.528 77.4824 277.072 77.5002C277.653 77.5002 278.179 77.8553 278.433 78.3703L291.426 104.973C292.061 106.323 292.95 106.998 294.111 106.998H300.88C302.259 106.998 302.949 106.429 302.949 105.293V104.583L289.611 77.8198C288.867 76.328 289.339 74.4811 290.791 73.5932H290.773ZM287.96 62.405C286.581 63.8258 284.948 64.9623 283.042 65.797C281.137 66.6317 279.087 67.0579 276.891 67.0579H257.928C255.097 67.0579 252.793 64.8025 252.793 62.0321V41.2186C252.793 38.4482 255.097 36.1928 257.928 36.1928H276.673C278.905 36.1928 280.992 36.619 282.897 37.4715C284.821 38.3239 286.472 39.4604 287.869 40.8989C289.266 42.3374 290.373 43.9713 291.172 45.8182C291.97 47.6829 292.369 49.6186 292.369 51.6253C292.369 53.6321 291.97 55.6211 291.19 57.4858C290.41 59.3505 289.321 60.9843 287.942 62.405H287.96Z" fill="white"/>
<path d="M376.422 96.3957H332.763C331.874 96.3957 331.148 95.6854 331.148 94.8152V71.0714C331.148 70.2012 331.874 69.4909 332.763 69.4909H366.587C367.404 69.4909 368.021 69.2423 368.438 68.7273C368.855 68.2123 369.055 67.6262 369.055 66.9691V61.3928C369.055 60.4871 368.819 59.83 368.329 59.4571C367.839 59.0664 367.258 58.8888 366.605 58.8888H332.781C331.892 58.8888 331.166 58.1784 331.166 57.3082V37.9865C331.166 37.1163 331.892 36.4059 332.781 36.4059H376.223C377.148 36.4059 377.838 36.1573 378.255 35.6423C378.69 35.1273 378.89 34.5235 378.89 33.8309V28.4144C378.89 26.6563 378.037 25.7861 376.313 25.7861H322.764C321.131 25.7861 320.296 26.6208 320.296 28.3079V104.742C320.296 106.27 321.113 107.033 322.764 107.033H376.549C377.91 107.033 379.017 105.95 379.017 104.618V98.9885C379.017 97.2659 378.164 96.4135 376.44 96.4135L376.422 96.3957Z" fill="white"/>
<path d="M401.808 25.7505H396.002C395.221 25.7505 394.604 25.9814 394.187 26.4609C393.752 26.9404 393.552 27.5087 393.552 28.1658V104.6C393.552 106.199 394.369 107.016 396.02 107.016H401.827C403.532 107.016 404.403 106.216 404.403 104.6V28.1658C404.403 27.4377 404.149 26.8516 403.623 26.4076C403.097 25.9636 402.498 25.7505 401.827 25.7505H401.808Z" fill="white"/>
<path d="M475.391 68.7094C473.123 67.0401 470.528 65.6194 467.642 64.5006C464.757 63.364 461.818 62.3517 458.805 61.4283C455.811 60.5226 452.853 59.6524 449.968 58.8355C447.083 58.0186 444.506 57.0951 442.22 56.0651C439.952 55.0528 438.119 53.8452 436.74 52.46C435.361 51.0748 434.671 49.3522 434.671 47.3099C434.671 45.8537 434.998 44.3974 435.651 42.959C436.304 41.5205 437.32 40.2241 438.699 39.0698C440.079 37.9154 441.839 36.992 443.962 36.2994C446.085 35.6068 448.625 35.2516 451.565 35.2516C454.069 35.2516 456.392 35.6423 458.551 36.4237C460.711 37.2051 462.652 38.093 464.394 39.0698C466.118 40.0465 467.588 41.0232 468.786 41.9645C469.983 42.9057 470.836 43.545 471.362 43.8824C471.889 44.3974 472.451 44.6638 473.068 44.6994C473.685 44.7349 474.284 44.4862 474.883 43.9357L478.857 40.2064C479.455 39.6558 479.746 39.0875 479.728 38.4837C479.71 37.8799 479.437 37.3116 478.911 36.7611C477.387 35.003 475.572 33.4224 473.467 31.9662C471.362 30.5277 469.112 29.2846 466.699 28.2546C464.304 27.2068 461.818 26.4076 459.295 25.8216C456.755 25.2355 454.323 24.9514 451.964 24.9514C447.609 24.9514 443.671 25.5019 440.133 26.6207C436.613 27.7395 433.6 29.2846 431.096 31.2913C428.592 33.2981 426.669 35.6778 425.308 38.4305C423.947 41.1831 423.275 44.2198 423.275 47.5408C423.275 50.1691 423.765 52.5311 424.727 54.6266C425.689 56.7222 427.213 58.6223 429.282 60.3094C431.35 62.0143 433.981 63.5594 437.193 64.9623C440.405 66.3653 444.234 67.7149 448.716 68.9758C451.964 69.917 455.013 70.8228 457.862 71.6752C460.711 72.5276 463.197 73.5043 465.32 74.5699C467.443 75.6532 469.13 76.8963 470.382 78.3525C471.635 79.791 472.252 81.5492 472.252 83.627C472.252 86.1132 471.616 88.262 470.346 90.109C469.076 91.9559 467.461 93.4654 465.483 94.673C463.505 95.8806 461.328 96.7686 458.95 97.3547C456.555 97.9407 454.232 98.2248 451.964 98.2248C450.694 98.2248 449.152 98.0295 447.319 97.621C445.486 97.2126 443.581 96.6088 441.585 95.7919C439.589 94.9749 437.593 93.9271 435.596 92.6663C433.6 91.4054 431.822 89.9137 430.262 88.2088L429.536 87.4984C429.046 86.9124 428.501 86.5927 427.921 86.5395C427.322 86.4862 426.705 86.717 426.07 87.232L421.66 90.8371C421.025 91.3521 420.699 91.9027 420.68 92.4709C420.662 93.057 420.898 93.643 421.388 94.2291C423.185 96.4844 425.199 98.4912 427.485 100.249C429.753 102.008 432.203 103.481 434.834 104.707C437.466 105.932 440.206 106.856 443.055 107.495C445.903 108.134 448.789 108.454 451.692 108.454C456.047 108.454 460.13 107.85 463.941 106.643C467.751 105.435 471.054 103.73 473.867 101.528C476.679 99.3259 478.893 96.6621 480.526 93.5365C482.141 90.4109 482.958 86.9479 482.958 83.112C482.958 79.7911 482.268 76.9673 480.889 74.6232C479.51 72.2967 477.677 70.29 475.409 68.6029V68.7094H475.391Z" fill="white"/>
<path d="M639.994 26.4076C639.413 25.9637 638.796 25.7506 638.125 25.7506H632.481C631.066 25.7506 630.249 26.4254 630.014 27.7751V83.8401C630.014 85.4384 627.927 86.131 626.947 84.8346L582.434 26.9404C581.836 26.1413 581.055 25.7328 580.094 25.7328H572.599C571.855 25.7328 571.257 25.9637 570.803 26.4432C570.349 26.9227 570.131 27.5265 570.131 28.2546V102.913C570.131 105.169 572 106.998 574.305 106.998H578.243C579.948 106.998 580.819 106.199 580.819 104.583V46.7949C580.819 45.1966 582.906 44.504 583.886 45.8004L629.614 105.79C630.213 106.589 630.921 106.998 631.737 106.998H638.107C639.939 106.998 640.847 106.199 640.847 104.583V28.148C640.847 27.4199 640.556 26.8339 639.976 26.3899H639.994V26.4076Z" fill="white"/>
<path d="M554.49 96.3957H510.83C509.941 96.3957 509.215 95.6854 509.215 94.8152V71.0714C509.215 70.2012 509.941 69.4909 510.83 69.4909H544.654C545.471 69.4909 546.088 69.2423 546.505 68.7273C546.923 68.2123 547.122 67.6262 547.122 66.9691V61.3928C547.122 60.4871 546.886 59.83 546.396 59.4571C545.907 59.0664 545.326 58.8888 544.673 58.8888H510.848C509.959 58.8888 509.233 58.1784 509.233 57.3082V37.9865C509.233 37.1163 509.959 36.4059 510.848 36.4059H554.29C555.215 36.4059 555.905 36.1573 556.322 35.6423C556.758 35.1273 556.958 34.5235 556.958 33.8309V28.4144C556.958 26.6563 556.105 25.7861 554.381 25.7861H500.832C499.199 25.7861 498.364 26.6208 498.364 28.3079V104.742C498.364 106.27 499.18 107.033 500.832 107.033H554.617C555.978 107.033 557.085 105.95 557.085 104.618V98.9885C557.085 97.2659 556.232 96.4135 554.508 96.4135H554.49V96.3957Z" fill="white"/>
<path d="M77.6471 76.328L67.8301 64.9978C66.7595 63.7724 66.8321 61.9433 67.9571 60.7889C69.8625 58.8177 71.7678 56.8819 73.655 54.9284C74.9796 53.561 76.3043 52.1936 77.629 50.8439C78.627 49.8139 79.6432 48.7661 80.6412 47.7361C82.9821 45.3209 85.3229 42.8879 87.6456 40.4549C87.936 40.153 88.2263 39.8333 88.5348 39.5137C88.807 39.194 89.0973 38.8921 89.4058 38.608C89.8413 38.164 90.2949 37.7378 90.7849 37.3293C93.1076 35.3581 95.7206 33.9374 98.624 33.0672C98.9869 32.9606 99.3317 32.8541 99.6946 32.7653C100.62 32.5344 100.892 31.3446 100.166 30.723C97.9345 28.8051 95.5392 27.0824 92.9987 25.5729C92.7628 25.4663 92.5995 25.3421 92.3999 25.3243C92.2184 25.3243 92.0733 25.3421 91.8374 25.4841C84.1979 30.2435 77.629 37.1695 77.629 37.1695L50.2103 65.353C48.9763 66.6139 46.7988 65.7615 46.7988 64.0211V38.1995C46.7988 38.1995 46.7988 31.0249 44.8935 26.5497C44.7483 26.2122 44.6031 25.8748 44.4579 25.5552C44.0043 24.5252 42.7341 24.0811 41.7179 24.6317C39.6493 25.7682 37.6532 27.0469 35.7841 28.4321C35.3305 28.7695 35.1672 29.3733 35.4031 29.8706C35.5301 30.1547 35.6571 30.4566 35.7841 30.7585C36.51 32.5699 36.9092 34.5057 36.9818 36.5657V95.9516C37.0181 96.6087 37.3266 102.451 35.5845 105.79C35.1672 106.589 35.4212 107.584 36.1652 108.134C37.9253 109.413 39.7763 110.603 41.7179 111.651C42.6615 112.166 43.8954 111.81 44.3491 110.851C46.8169 105.79 46.817 97.4967 46.817 97.4967V84.7457C46.817 83.4138 47.3432 82.1174 48.2686 81.1407L49.2304 80.1462L56.7429 72.3145C58.0675 70.9293 60.3176 71.0003 61.5697 72.4566L77.6471 91.281C77.6471 91.281 84.9237 100.551 93.6701 107.353C94.9403 108.33 96.7368 108.33 98.007 107.353C99.0958 106.5 100.166 105.63 101.183 104.689C102.435 103.552 102.326 101.563 100.965 100.569C92.1459 94.1402 77.6471 76.3457 77.6471 76.3457V76.328Z" fill="white"/>
<path d="M68.2292 0C30.5399 0 0 29.9061 0 66.7737C0 103.641 30.558 133.547 68.2292 133.547C105.9 133.547 136.458 103.641 136.458 66.7737C136.458 29.9061 105.9 0 68.2292 0ZM67.7393 124.1C35.6571 124.1 9.65372 98.651 9.65372 67.2532C9.65372 35.8553 35.6571 10.4068 67.7393 10.4068C99.8216 10.4068 125.825 35.8553 125.825 67.2532C125.825 98.651 99.8216 124.1 67.7393 124.1Z" fill="white"/>
</svg>
